<?xml version="1.0" encoding="UTF-8"?><svg id="b" xmlns="http://www.w3.org/2000/svg" viewBox="0 0 109.95 110.1"><path d="M96.9,107.49H16.23s-.33-9.1-.33-9.1l10.21-.23.03-84.93-10.22-.7.3-8.95,80.66-.02.17,9.08-10.14.27v84.96s10.13.68,10.13.68l-.14,8.94ZM73.51,24.41c1.56-2.13,1.64-6.15.44-8.18-.88-1.5-3.97-3.27-5.98-3.27h-23c-2.04.02-5.05,1.76-5.92,3.29-.91,1.62-1.15,5.9-.11,7.33l17.58,24.04,16.99-23.21ZM50.84,55.42l-15.49-21.01.02,42.31,15.47-21.29ZM77.57,76.23l.1-41.82-15.49,21.14,15.39,20.68ZM68.24,98.06c2.33,0,5.38-2.19,6.05-3.83.61-1.48.78-5.39-.19-6.72l-17.59-24.04-17.21,23.49c-1.32,1.8-1.31,6.05-.17,7.96.9,1.5,4.02,3.19,6.06,3.19l23.05-.04Z"/></svg>