<?xml version="1.0" encoding="UTF-8"?><svg id="a" xmlns="http://www.w3.org/2000/svg" viewBox="0 0 109.95 110.1"><path d="M51.95,63.95c8.88-1.47,16.11,4.85,17.44,12.4,1.51,8.58-4.34,16.28-12.31,17.7s-15.92-3.9-17.65-11.73c-1.82-8.25,3.28-16.83,12.52-18.36ZM50.99,74.03c-3.25,2.06-3.22,6.61-1.6,8.48,2.28,2.64,5.61,3.01,7.57,1.99,3.5-1.83,4.09-6.17,2.65-8.54-1.68-2.75-5.45-3.94-8.61-1.94Z"/><path d="M107.96,109.19l-107.28.04,27.71-48.19c-13.52-14.84-12.92-36.73,1.19-50.43,13.66-13.26,35.7-13.41,49.55.03s15,35.39,1.13,50.28l27.7,48.28ZM54.29,16.45l21.07,35.88c8.98-11.68,6.54-27.19-3.8-36.13-10.08-8.72-25.18-8.44-34.91.4s-12.12,24.35-3.32,35.79l20.95-35.93ZM92.06,100L54.32,34.66,16.59,100.01l75.47-.02Z"/></svg>