<?xml version="1.0" encoding="UTF-8"?><svg id="c" xmlns="http://www.w3.org/2000/svg" viewBox="0 0 109.95 110.1"><path d="M47.44,6.72c27.87-4.28,52.29,14.97,56.45,41.51,4.22,26.97-14.47,52.12-41.55,56.22-26.46,4-51.74-13.89-56.18-40.38S19.37,11.03,47.44,6.72ZM95.25,56.83c.31-24.1-18.82-41.97-41.23-41.51S14,34.15,14.75,56.87l80.5-.04ZM91.75,71.49l1.78-5.38H16.45c.47,2.2,1.04,3.71,2.04,5.38h73.27ZM82.43,83.97c1.15,0,3.12-2.37,2.49-3.25l-60.4.03c.6,1.97,2.26,3.27,3.88,3.27l54.03-.05ZM67.4,93.33l-25.12-.08c8.22,3.56,17.2,3.5,25.12.08Z"/></svg>