<?xml version="1.0" encoding="UTF-8"?><svg id="d" xmlns="http://www.w3.org/2000/svg" viewBox="0 0 109.95 110.1"><path d="M107.41,39.1l-52.42,62.74L2.53,39.13,24.82,9.28l60.33.02,22.27,29.81ZM32.2,34.53l6.79-15.78c-3.63-.19-7.16-.2-10.03.21l-11.16,15.36,14.4.21ZM67.58,34.42l-6.87-15.86-11.62.15-6.76,15.79,25.24-.08ZM92.03,34.21l-10.93-15.21c-3.22-.55-6.75-.55-10.07.14l6.87,15.46,14.13-.38ZM31.83,43.54l-12.92.51c7.75,9.71,14.94,18.46,23.32,27.65-3.39-10.35-6.68-18.62-10.4-28.16ZM68.04,43.78l-26.26.03,13.14,33.78,13.11-33.81ZM91.13,44.1c-5.22-.28-8.87-.32-13.25-.23l-10.22,28.06,23.46-27.83Z"/></svg>